<?xml version="1.0" encoding="UTF-8"?>
<svg version="1.1" xmlns="http://www.w3.org/2000/svg" width="2000" height="596">
<path d="M0 0 C0.92505718 -0.00384115 1.85011436 -0.00768229 2.80320358 -0.01163983 C3.83146885 -0.01077335 4.85973412 -0.00990687 5.91915894 -0.00901413 C7.00241077 -0.01198525 8.08566261 -0.01495637 9.20174026 -0.01801753 C12.8625997 -0.02674783 16.5234266 -0.02821647 20.18429565 -0.02970505 C22.79722158 -0.03433052 25.41014684 -0.0393548 28.02307129 -0.04475021 C35.14789153 -0.05835982 42.27270616 -0.06436405 49.39753723 -0.06876087 C53.85058715 -0.07152229 58.3036349 -0.07575979 62.75668335 -0.08026505 C75.09408431 -0.09246761 87.43148352 -0.10276075 99.76889038 -0.10614014 C100.55939852 -0.1063597 101.34990665 -0.10657927 102.16436958 -0.10680549 C102.95676474 -0.10702377 103.74915989 -0.10724204 104.56556702 -0.10746694 C106.17122396 -0.1079104 107.7768809 -0.10835696 109.38253784 -0.10880661 C110.57722781 -0.10913875 110.57722781 -0.10913875 111.79605293 -0.10947761 C124.66585177 -0.11341506 137.5355936 -0.13083233 150.40537047 -0.15416613 C163.6300216 -0.17794858 176.85464425 -0.19034533 190.07931709 -0.19150805 C197.49945293 -0.19242165 204.91951479 -0.19809266 212.33963013 -0.21632767 C218.66727287 -0.23182281 224.99481884 -0.23679469 231.32247698 -0.22858956 C234.54484698 -0.22471425 237.7669844 -0.22712932 240.98933792 -0.23964691 C267.1765426 -0.33534241 289.50841952 2.1334154 309.4147644 20.61580276 C321.18081965 33.03442915 328.05020691 49.72407335 328.0295105 66.80965042 C328.03622772 67.62567734 328.04294495 68.44170425 328.04986572 69.28245926 C328.06870618 71.95353331 328.07276326 74.62435408 328.07492065 77.29549026 C328.08135987 79.17483493 328.08808904 81.05417862 328.09509277 82.93352127 C328.10703192 86.86556187 328.11077723 90.79751486 328.10958862 94.7295723 C328.109386 99.72886515 328.13664464 104.72758595 328.17113304 109.7267437 C328.19354988 113.60820894 328.19742162 117.48953993 328.19636917 121.37106323 C328.19870463 123.2119671 328.20740986 125.05287586 328.22303391 126.8937149 C328.3785169 147.11001554 324.61934946 164.73693992 310.0319519 179.86189651 C309.27527222 180.61084183 308.51859253 181.35978714 307.73898315 182.13142776 C307.07511597 182.82881058 306.41124878 183.52619339 305.7272644 184.24470901 C294.1061576 195.64446141 279.3533253 199.55166689 263.73898315 202.13142776 C264.22367065 202.97963089 264.70835815 203.82783401 265.20773315 204.70174026 C265.68653931 205.53971146 265.68653931 205.53971146 266.17501831 206.39461136 C266.89851161 207.66064162 267.62214979 208.92658909 268.34591675 210.19246292 C270.08696967 213.23799507 271.82602039 216.28458342 273.55929565 219.33455276 C277.79439508 226.77806085 282.10087946 234.17763921 286.42648315 241.56892776 C291.09720781 249.55323255 295.70520291 257.56859467 300.23898315 265.63142776 C307.51307958 278.56563513 315.01532056 291.36388166 322.51754761 304.16658401 C326.12434969 310.33370067 329.69272113 316.51893706 333.17648315 322.75642776 C333.62185425 323.54404495 334.06722534 324.33166214 334.52609253 325.14314651 C334.94568237 325.89466995 335.36527222 326.64619339 335.7975769 327.42049026 C336.35916504 328.42136673 336.35916504 328.42136673 336.93209839 329.44246292 C337.73898315 331.13142776 337.73898315 331.13142776 337.73898315 333.13142776 C327.72546591 333.45665176 317.71321499 333.70496659 307.6954813 333.85679817 C303.04279408 333.92969816 298.393733 334.02843295 293.74313354 334.18758011 C289.24942302 334.34038541 284.75918359 334.42353224 280.26307487 334.45970917 C278.55343885 334.48546347 276.84398115 334.53576991 275.13583565 334.61164856 C262.13121754 335.16604158 262.13121754 335.16604158 258.15141296 331.78118706 C254.89840623 327.95590625 252.83071116 323.66639473 250.73898315 319.13142776 C249.70640825 317.2486638 248.66462784 315.37085753 247.60617065 313.50252151 C247.13662964 312.61935257 246.66708862 311.73618362 246.18331909 310.82625198 C243.53224463 305.87990988 240.68042402 301.04736973 237.86398315 296.19392776 C236.53402776 293.89605394 235.20445237 291.59796669 233.8757019 289.29939651 C233.5358577 288.71164444 233.19601349 288.12389236 232.84587097 287.51832962 C229.43472178 281.61392438 226.05644786 275.690915 222.67984009 269.76671219 C216.67136444 259.22547233 210.60465592 248.72002697 204.47848511 238.24666214 C201.41753039 233.0127445 198.36624363 227.77426414 195.36398315 222.50642776 C194.51179703 221.09567474 194.51179703 221.09567474 193.64239502 219.65642166 C192.2387617 217.21969706 191.45862198 215.24945884 190.58529663 212.50212479 C188.95792731 208.18495796 187.5373537 204.88295139 183.73898315 202.13142776 C175.18960153 199.39013183 165.56083027 200.36538657 156.70773315 200.54549026 C154.33305214 200.54620052 151.95836065 200.54061776 149.58370972 200.52864456 C140.80180596 200.52836175 132.02023851 200.64971271 123.23898315 200.75642776 C93.78648315 200.94205276 93.78648315 200.94205276 63.73898315 201.13142776 C63.73898315 244.69142776 63.73898315 288.25142776 63.73898315 333.13142776 C40.96898315 333.13142776 18.19898315 333.13142776 -5.26101685 333.13142776 C-5.26101685 267.13142776 -5.26101685 201.13142776 -5.26101685 133.13142776 C81.85898315 132.80142776 168.97898315 132.47142776 258.73898315 132.13142776 C262.86079136 100.04036685 262.86079136 100.04036685 257.73898315 70.13142776 C127.55398315 69.63642776 127.55398315 69.63642776 -5.26101685 69.13142776 C-5.26101685 0.0081512 -5.26101685 0.0081512 0 0 Z " fill="#000000" transform="translate(12.261016845703125,262.8685722351074)"/>
<path d="M0 0 C1.29216934 -0.02889816 2.58433868 -0.05779633 3.91566467 -0.08757019 C5.33495022 -0.10723265 6.75425887 -0.12528357 8.17358398 -0.1418457 C8.8886656 -0.15124491 9.60374722 -0.16064411 10.34049797 -0.17032814 C14.13094293 -0.2179434 17.92124882 -0.2515995 21.71191406 -0.27539062 C25.61110973 -0.30300146 29.50746665 -0.38205492 33.40562534 -0.47293377 C36.41617074 -0.53303977 39.42605609 -0.55268591 42.43714714 -0.56189919 C43.87290758 -0.57342161 45.30863581 -0.60010892 46.74380684 -0.64282799 C57.9325724 -0.95592193 57.9325724 -0.95592193 62.71841431 2.34088135 C64.97932539 4.57746759 66.94175867 6.83543387 68.85717773 9.36987305 C70.04053711 10.73499023 70.04053711 10.73499023 71.24780273 12.12768555 C71.86139648 12.90885742 72.47499023 13.6900293 73.10717773 14.49487305 C76.6843186 18.9538785 80.35517543 23.3084348 84.10717773 27.61987305 C84.93318481 28.56938843 84.93318481 28.56938843 85.77587891 29.53808594 C86.9046076 30.83443305 88.03376125 32.13041027 89.16333008 33.42602539 C91.92064457 36.59030011 94.67051131 39.7610191 97.41967773 42.93237305 C97.95818359 43.55337891 98.49668945 44.17438477 99.05151367 44.81420898 C103.16090657 49.55695804 107.24684134 54.31942179 111.3269043 59.08740234 C118.32954075 67.26523372 125.36845395 75.41341118 132.48217773 83.49487305 C135.37640703 86.79443667 138.21300664 90.14165639 141.04467773 93.49487305 C152.13508966 106.66510641 152.13508966 106.66510641 163.54467773 119.55737305 C167.30355109 123.69953045 170.83690568 127.98938097 174.35717773 132.3347168 C178.85134135 137.79091231 183.51835361 143.09823871 188.16333008 148.42602539 C190.92064457 151.59030011 193.67051131 154.7610191 196.41967773 157.93237305 C197.22743652 158.86388184 197.22743652 158.86388184 198.05151367 159.81420898 C202.16465138 164.56128002 206.25457863 169.32785737 210.33789062 174.10058594 C213.99444131 178.37146114 217.6716078 182.62402645 221.35717773 186.86987305 C226.0316715 192.25497869 230.68395238 197.65831848 235.31787109 203.07836914 C237.99735545 206.20954181 240.68780676 209.33060409 243.39233398 212.44018555 C243.98079102 213.11694336 244.56924805 213.79370117 245.17553711 214.4909668 C246.30974695 215.7941015 247.44510234 217.09624034 248.58178711 218.3972168 C249.09676758 218.98889648 249.61174805 219.58057617 250.14233398 220.19018555 C250.59487549 220.7085498 251.04741699 221.22691406 251.51367188 221.76098633 C253.03310846 223.58055512 254.44053698 225.46961039 255.85717773 227.36987305 C255.86140967 226.20605134 255.86564161 225.04222963 255.87000179 223.8431406 C255.97057821 196.24465301 256.07626833 168.64618888 256.18829468 141.04774529 C256.20206501 137.65422618 256.21579199 134.26070689 256.22949219 130.8671875 C256.23222049 130.19157087 256.2349488 129.51595424 256.23775978 128.81986438 C256.28188964 117.86625365 256.32250433 106.91263255 256.36183035 95.95900363 C256.40223081 84.72778978 256.44645924 73.49659546 256.49405628 62.26540941 C256.52068302 55.95357299 256.54553664 49.64174049 256.56625175 43.32988167 C256.58577938 37.39646676 256.60991131 31.4630889 256.63766861 25.52970695 C256.64705965 23.34511866 256.65472747 21.16052222 256.66059685 18.97592163 C256.6688233 16.00722717 256.68308992 13.03862348 256.69895935 10.06996155 C256.69993746 9.19352007 256.70091556 8.3170786 256.70192331 7.4140783 C256.74305652 1.48399426 256.74305652 1.48399426 257.85717773 0.36987305 C259.9073062 0.27047679 261.96089165 0.24187752 264.01342773 0.24047852 C265.33149414 0.23732635 266.64956055 0.23417419 268.00756836 0.23092651 C269.45743849 0.23271629 270.90730831 0.23476724 272.35717773 0.23706055 C273.83308936 0.23638747 275.30900087 0.23541742 276.78491211 0.23416138 C279.88192803 0.23268457 282.97891516 0.23483841 286.07592773 0.23950195 C290.05426322 0.24519924 294.03253125 0.24192015 298.01086426 0.23592949 C301.0596569 0.23232341 304.10843344 0.23346268 307.15722656 0.23605728 C308.6245118 0.23672642 310.09179848 0.23589858 311.55908203 0.23357773 C313.60636366 0.23105048 315.6536504 0.23558244 317.70092773 0.24047852 C319.45179688 0.24167191 319.45179688 0.24167191 321.23803711 0.2428894 C323.85717773 0.36987305 323.85717773 0.36987305 324.85717773 1.36987305 C324.95459261 3.13700367 324.98089216 4.90807441 324.98022556 6.67788792 C324.98221661 7.8363663 324.98420766 8.99484468 324.98625904 10.18842846 C324.9833462 11.47731045 324.98043336 12.76619245 324.97743225 14.09413147 C324.97786783 15.46442845 324.9787425 16.83472535 324.98002142 18.2050218 C324.98226895 21.98809549 324.97824159 25.77114114 324.97324336 29.55421126 C324.96894272 33.62716971 324.970385 37.70012646 324.97114563 41.77308655 C324.97167111 48.83561137 324.96852179 55.89812698 324.96290779 62.96064949 C324.95479606 73.17199186 324.95217791 83.38332976 324.9509198 93.594675 C324.94872877 110.1601244 324.94206729 126.72556889 324.93261719 143.29101562 C324.9234444 159.38704402 324.91636292 175.48307108 324.91210938 191.57910156 C324.91171529 193.06623128 324.91171529 193.06623128 324.91131324 194.58340401 C324.91000825 199.55684503 324.90874453 204.53028605 324.90750134 209.50372708 C324.89712712 250.79244582 324.87950741 292.08115915 324.85717773 333.36987305 C316.01666973 333.6255948 307.17744796 333.82060734 298.33403873 333.93980694 C294.22672806 333.99704201 290.1219602 334.07455127 286.01611328 334.19970703 C282.04770215 334.31990585 278.08172319 334.38513054 274.11163139 334.41352272 C272.60312036 334.43373213 271.09473165 334.47320389 269.58726692 334.53290367 C257.7890665 334.98123728 257.7890665 334.98123728 252.96383667 330.95657349 C250.69205138 328.19234532 248.75681036 325.39724985 246.85717773 322.36987305 C245.97130271 321.31205464 245.06047918 320.27360522 244.10717773 319.27612305 C239.22377367 314.0535937 234.62702927 308.68321016 230.13842773 303.11987305 C227.78998805 300.28887726 225.34807871 297.57603707 222.85717773 294.86987305 C218.74338865 290.40002185 214.88630477 285.77942412 211.07202148 281.0534668 C208.90084947 278.42278748 206.65476417 275.8904488 204.35717773 273.36987305 C201.26162577 269.97388623 198.30566566 266.50815774 195.41967773 262.93237305 C192.34381185 259.12899802 189.16964607 255.46904653 185.85717773 251.86987305 C181.74338865 247.40002185 177.88630477 242.77942412 174.07202148 238.0534668 C171.90084947 235.42278748 169.65476417 232.8904488 167.35717773 230.36987305 C164.26162577 226.97388623 161.30566566 223.50815774 158.41967773 219.93237305 C154.55892636 215.15847005 150.48280698 210.63598877 146.32592773 206.11987305 C143.12836477 202.55803076 140.14329431 198.84421472 137.13842773 195.11987305 C134.78998805 192.28887726 132.34807871 189.57603707 129.85717773 186.86987305 C125.74338865 182.40002185 121.88630477 177.77942412 118.07202148 173.0534668 C115.90084947 170.42278748 113.65476417 167.8904488 111.35717773 165.36987305 C108.26162577 161.97388623 105.30566566 158.50815774 102.41967773 154.93237305 C98.55892636 150.15847005 94.48280698 145.63598877 90.32592773 141.11987305 C87.13078271 137.56072416 84.14759666 133.85021596 81.14624023 130.12768555 C78.03604309 126.38058796 74.74068818 122.82129665 71.41186523 119.26831055 C68.04847784 115.45235726 64.98007067 111.38502111 61.85717773 107.36987305 C61.52717773 181.94987305 61.19717773 256.52987305 60.85717773 333.36987305 C38.41717773 333.36987305 15.97717773 333.36987305 -7.14282227 333.36987305 C-8.85329146 331.65940385 -8.26981178 329.43615787 -8.27145672 327.09867954 C-8.27468116 325.94840135 -8.27790561 324.79812316 -8.28122777 323.61298805 C-8.27967917 322.3332522 -8.27813056 321.05351634 -8.27653503 319.73500061 C-8.27840119 318.37437818 -8.28070111 317.01375628 -8.28340036 315.65313524 C-8.28954894 311.89673038 -8.28938119 308.14034766 -8.28820598 304.38393891 C-8.28800274 300.33956881 -8.29351334 296.29520598 -8.29826355 292.25083923 C-8.30658735 284.32072289 -8.30931917 276.39061398 -8.30987593 268.46049363 C-8.31035026 262.01793154 -8.31240086 255.57537191 -8.31557655 249.13281059 C-8.32438777 230.88746445 -8.32899519 212.6421242 -8.32824608 194.39677591 C-8.32820612 193.41215822 -8.32816617 192.42754053 -8.328125 191.41308594 C-8.32808412 190.42727319 -8.32804324 189.44146043 -8.32800112 188.42577457 C-8.32759449 172.44192576 -8.33716697 156.45810049 -8.35126337 140.47425849 C-8.36560625 124.08225561 -8.37253471 107.69026423 -8.37166959 91.29825491 C-8.3713369 82.08730065 -8.37411533 72.87637107 -8.38484764 63.66542244 C-8.39392524 55.82404783 -8.39615058 47.98270908 -8.38933822 40.1413315 C-8.38605909 36.13709979 -8.38606608 32.13293698 -8.39469147 28.1287117 C-8.40249644 24.46785116 -8.40118729 20.80711486 -8.39240734 17.14625757 C-8.39012171 15.18433523 -8.39774784 13.22240922 -8.40564698 11.26050144 C-8.40104818 10.10761551 -8.39644939 8.95472957 -8.39171124 7.76690769 C-8.3919286 6.76574753 -8.39214597 5.76458737 -8.39236993 4.73308903 C-7.84539839 -0.44673064 -4.36180238 0.0868029 0 0 Z " fill="#000000" transform="translate(1675.142822265625,262.630126953125)"/>
<path d="M0 0 C42.15042063 -0.02286461 84.30084054 -0.04049733 126.45126614 -0.05106533 C131.42201923 -0.05231611 136.39277231 -0.05361042 141.36352539 -0.05493164 C142.35315657 -0.05519395 143.34278775 -0.05545626 144.36240775 -0.05572652 C160.40841948 -0.0600836 176.45442764 -0.06797135 192.50043725 -0.0771528 C208.95229239 -0.08648829 225.40414566 -0.09205539 241.85600334 -0.09408849 C252.01623144 -0.09546394 262.17644946 -0.09981568 272.33667446 -0.10791647 C279.29401728 -0.11318265 286.25135485 -0.11480459 293.20869952 -0.11350138 C297.22898432 -0.1128578 301.24925146 -0.11387776 305.26953316 -0.11920547 C308.943918 -0.12403954 312.61827314 -0.12433861 316.29265929 -0.12089889 C318.26431388 -0.12027026 320.23596808 -0.12461194 322.2076177 -0.12908131 C323.94011018 -0.12609474 323.94011018 -0.12609474 325.7076025 -0.12304783 C326.71272222 -0.12342755 327.71784193 -0.12380727 328.75341982 -0.1241985 C331 0 331 0 332 1 C332.15207939 3.06230495 332.23365107 5.12983337 332.28808594 7.19702148 C332.31480881 8.16801033 332.31480881 8.16801033 332.34207153 9.15861511 C332.49709677 15.15877428 332.58412292 21.16059094 332.65206528 27.16230679 C332.69812946 31.19226625 332.7652278 35.21929588 332.88476562 39.24780273 C333.00001509 43.14613831 333.06004304 47.04185276 333.0825882 50.94178963 C333.10026928 52.42153079 333.13689154 53.90118194 333.19359589 55.37994194 C333.41943844 61.56576739 333.58944112 66.92334252 329.66906738 72.04544067 C326.89255514 74.59863647 324.06905644 76.81165666 321 79 C319.15900535 80.49058707 317.32456104 81.98934182 315.5 83.5 C314.5925 84.2321875 313.685 84.964375 312.75 85.71875 C309.91900422 88.06718968 307.20616402 90.50909902 304.5 93 C300.0301488 97.11378909 295.40955107 100.97087297 290.68359375 104.78515625 C288.05291443 106.95632827 285.52057576 109.20241357 283 111.5 C279.60401318 114.59555196 276.13828469 117.55151207 272.5625 120.4375 C267.788597 124.29825137 263.26611572 128.37437075 258.75 132.53125 C255.18815771 135.72881296 251.47434167 138.71388343 247.75 141.71875 C244.91900422 144.06718968 242.20616402 146.50909902 239.5 149 C235.0301488 153.11378909 230.40955107 156.97087297 225.68359375 160.78515625 C223.05291443 162.95632827 220.52057576 165.20241357 218 167.5 C213.70008209 171.41891252 209.24080453 175.09170869 204.71875 178.75 C201.21949476 181.64593537 197.87937384 184.69829956 194.5234375 187.7578125 C191.94917642 190.04515904 189.30710511 192.21548271 186.625 194.375 C182.61175889 197.6195076 178.77564046 200.9872668 175 204.5 C170.367489 208.8099377 165.5787805 212.8506094 160.6484375 216.8203125 C158.02724881 218.97757399 155.50845719 221.21311 153 223.5 C148.70008209 227.41891252 144.24080453 231.09170869 139.71875 234.75 C137.07852271 236.93501569 134.5327028 239.19171391 132 241.5 C127.8034142 245.32473643 123.47002632 248.92896635 119.03125 252.46875 C114.57916025 256.18647443 110.31127124 260.11985588 106 264 C180.58 264.33 255.16 264.66 332 265 C332 287.44 332 309.88 332 333 C289.72218343 333.02202552 247.44437225 333.04049732 205.16655159 333.05106533 C200.18077722 333.05231611 195.19500287 333.05361042 190.20922852 333.05493164 C189.21660672 333.05519395 188.22398493 333.05545626 187.20128369 333.05572652 C171.10677302 333.0600836 155.0122659 333.06797135 138.91775734 333.0771528 C122.41618165 333.08648829 105.91460783 333.09205539 89.41302961 333.09408849 C79.22209206 333.09546394 69.03116456 333.09981569 58.8402301 333.10791647 C51.8618625 333.11318264 44.88350013 333.11480459 37.90513069 333.11350138 C33.87269431 333.11285779 29.84027554 333.11387778 25.80784225 333.11920547 C22.12235491 333.12403952 18.43689716 333.12433862 14.75140851 333.12089889 C12.77378903 333.12027026 10.79616994 333.12461195 8.81855541 333.12908131 C7.66007703 333.12709026 6.50159865 333.12509921 5.30801487 333.12304783 C4.29985739 333.12342755 3.29169992 333.12380727 2.25299221 333.1241985 C0 333 0 333 -1 332 C-1.15726158 329.97378136 -1.24419349 327.94207795 -1.30395508 325.91064453 C-1.34261185 324.60483429 -1.38126862 323.29902405 -1.4210968 321.9536438 C-1.54711832 316.72987268 -1.63712876 311.50550988 -1.70387745 306.28065681 C-1.75510874 302.31880549 -1.82915669 298.36047375 -1.96020508 294.40039062 C-2.08656623 290.5668264 -2.15236806 286.73642459 -2.17746544 282.90090561 C-2.19695452 281.44703091 -2.23710254 279.99326549 -2.29932594 278.54059219 C-2.55014803 272.39353198 -2.73720654 266.5830939 1.55581665 261.74310303 C4.49696039 258.86387618 7.68822566 256.43858351 11 254 C12.88079705 252.46541095 14.75677802 250.92487346 16.625 249.375 C17.97464844 248.28832031 17.97464844 248.28832031 19.3515625 247.1796875 C21.97275119 245.02242601 24.49154281 242.78689 27 240.5 C30.39598682 237.40444804 33.86171531 234.44848793 37.4375 231.5625 C41.24087503 228.48663412 44.90082652 225.31246834 48.5 222 C52.9698512 217.88621091 57.59044893 214.02912703 62.31640625 210.21484375 C64.94708557 208.04367173 67.47942424 205.79758643 70 203.5 C73.39598682 200.40444804 76.86171531 197.44848793 80.4375 194.5625 C85.211403 190.70174863 89.73388428 186.62562925 94.25 182.46875 C97.81184229 179.27118704 101.52565833 176.28611657 105.25 173.28125 C108.08099578 170.93281032 110.79383598 168.49090098 113.5 166 C117.9698512 161.88621091 122.59044893 158.02912703 127.31640625 154.21484375 C129.94708557 152.04367173 132.47942424 149.79758643 135 147.5 C138.39598682 144.40444804 141.86171531 141.44848793 145.4375 138.5625 C149.24087503 135.48663412 152.90082652 132.31246834 156.5 129 C160.9803999 124.87701092 165.60541839 121.00051691 170.34765625 117.18359375 C173.74893995 114.38342058 176.99335155 111.42931402 180.22265625 108.43359375 C182 107 182 107 184 107 C184 106.34 184 105.68 184 105 C185.57286684 103.58561594 187.21139996 102.24395599 188.875 100.9375 C192.68835562 97.88974135 196.39808809 94.79499659 200 91.5 C204.230199 87.64522278 208.59859896 84.00923359 213.06640625 80.43359375 C215.65525369 78.28598795 218.17283983 76.08579105 220.68334961 73.84790039 C221.49219101 73.12735977 222.30103241 72.40681915 223.13438416 71.66444397 C223.75003738 71.11517746 224.36569061 70.56591095 225 70 C223.84133203 69.99576806 222.68266405 69.99153612 221.48888493 69.98717594 C194.01258551 69.88659944 166.53630974 69.78090929 139.06005451 69.66888306 C135.68155668 69.65511273 132.30305867 69.64138575 128.92456055 69.62768555 C128.25193453 69.62495724 127.57930852 69.62222894 126.8862999 69.61941796 C115.98118816 69.57528815 105.076066 69.53467344 94.170936 69.49534739 C82.98944284 69.45494687 71.80796849 69.41071842 60.62650341 69.36312145 C54.34261269 69.33649476 48.05872591 69.31164114 41.7748127 69.29092598 C35.86766251 69.27139829 29.96054954 69.24726634 24.05343246 69.21950912 C21.87851955 69.21011812 19.70359844 69.20245028 17.52867317 69.19658089 C14.57311571 69.18835438 11.61764943 69.17408774 8.66212463 69.15821838 C7.35329885 69.15675122 7.35329885 69.15675122 6.01803213 69.15525442 C0.11412121 69.11412121 0.11412121 69.11412121 -1 68 C-1.09939492 65.95516624 -1.12799552 63.90686668 -1.12939453 61.85961914 C-1.13254669 60.54478043 -1.13569885 59.22994171 -1.13894653 57.8752594 C-1.13715657 56.42855801 -1.13510557 54.98185693 -1.1328125 53.53515625 C-1.13348564 52.06164026 -1.13445575 50.58812437 -1.13571167 49.11460876 C-1.13718863 46.021789 -1.13503445 42.92899806 -1.13037109 39.83618164 C-1.12467878 35.86691265 -1.12794965 31.89771135 -1.13394356 27.92844486 C-1.13755347 24.88390084 -1.13640851 21.83937292 -1.13381577 18.79482841 C-1.13314743 17.33116078 -1.13397167 15.8674917 -1.13629532 14.40382576 C-1.13882828 12.35914258 -1.13428467 10.31445429 -1.12939453 8.26977539 C-1.12859894 7.10474991 -1.12780334 5.93972443 -1.12698364 4.73939514 C-1 2 -1 2 0 0 Z " fill="#000000" transform="translate(815,263)"/>
<path d="M0 0 C109.56 0 219.12 0 332 0 C332 22.44 332 44.88 332 68 C244.88 68 157.76 68 68 68 C68 89.12 68 110.24 68 132 C155.12 132 242.24 132 332 132 C332 154.44 332 176.88 332 200 C222.44 200 112.88 200 0 200 C0 134 0 68 0 0 Z " fill="#000000" transform="translate(1237,396)"/>
<path d="M0 0 C10.57027399 -0.18559753 21.14015863 -0.32762624 31.71173191 -0.41449738 C36.62098928 -0.45619828 41.52912965 -0.51273084 46.43774414 -0.60351562 C51.17758544 -0.69062741 55.91635456 -0.73831248 60.65693474 -0.75901794 C62.46273616 -0.77376706 64.26848074 -0.80257088 66.07382393 -0.84584045 C80.20121351 -1.17088233 80.20121351 -1.17088233 84.603302 1.69456482 C86.40899228 3.71955836 87.69519897 5.6300287 89 8 C89.96141634 9.33335245 90.93383654 10.65890965 91.921875 11.97265625 C92.86882769 13.33299274 93.81142667 14.69636865 94.75 16.0625 C95.79569799 17.56462214 96.84259711 19.06590875 97.890625 20.56640625 C98.41076172 21.31164551 98.93089844 22.05688477 99.46679688 22.82470703 C101.76443848 26.08457753 104.12832516 29.29379127 106.5 32.5 C110.34166565 37.70192539 114.10017779 42.95505621 117.8125 48.25 C122.12453333 54.39718068 126.52936801 60.46725137 131 66.5 C136.05435743 73.32070624 141.00688751 80.2029583 145.88500977 87.15063477 C149.14499369 91.79360901 152.44829652 96.40079524 155.796875 100.98046875 C158.77385737 105.06062367 161.73065455 109.15523836 164.6875 113.25 C165.23462646 114.00724365 165.78175293 114.7644873 166.34545898 115.54467773 C166.87469971 116.27759033 167.40394043 117.01050293 167.94921875 117.765625 C168.46274902 118.47525391 168.9762793 119.18488281 169.50537109 119.91601562 C170.49271807 121.29268891 171.4698571 122.67674759 172.43603516 124.06835938 C174.7108546 127.57577571 174.7108546 127.57577571 178 130 C178.27674561 129.41621582 178.55349121 128.83243164 178.83862305 128.23095703 C179.94982994 126.09637461 181.16510305 124.2463571 182.58203125 122.3046875 C183.09531982 121.59795898 183.6086084 120.89123047 184.13745117 120.16308594 C184.69021729 119.40801758 185.2429834 118.65294922 185.8125 117.875 C186.99225394 116.25265248 188.1719395 114.63025523 189.3515625 113.0078125 C190.25890137 111.76306152 190.25890137 111.76306152 191.18457031 110.49316406 C194.02936877 106.58634832 196.85867686 102.66839075 199.6875 98.75 C200.50214722 97.62247314 200.50214722 97.62247314 201.33325195 96.47216797 C204.56914558 91.99109818 207.7916568 87.50082851 211 83 C216.40066831 75.42366531 221.85261683 67.88460443 227.3046875 60.34521484 C229.01664608 57.9769726 230.72729483 55.60778995 232.4375 53.23828125 C233.5624968 51.67968519 234.68749676 50.12109141 235.8125 48.5625 C236.36067383 47.80300049 236.90884766 47.04350098 237.47363281 46.26098633 C240.32553198 42.31163539 243.18738007 38.36999875 246.0625 34.4375 C249.42371767 29.82559669 252.71414607 25.16567871 256 20.5 C257.99856107 17.66564853 259.99843047 14.83222777 262 12 C262.42442383 11.39929688 262.84884766 10.79859375 263.28613281 10.1796875 C264.39415167 8.61628107 265.50929465 7.05793037 266.625 5.5 C267.23601562 4.6440625 267.84703125 3.788125 268.4765625 2.90625 C270 1 270 1 272 0 C274.59382177 -0.09301163 277.16054639 -0.12580286 279.75439453 -0.11352539 C280.55447937 -0.11367142 281.35456421 -0.11381744 282.17889404 -0.1139679 C284.83022753 -0.1132698 287.48149125 -0.10548221 290.1328125 -0.09765625 C291.96841392 -0.0957917 293.80401583 -0.09436797 295.63961792 -0.09336853 C300.47623055 -0.08954623 305.31281327 -0.07971839 310.14941406 -0.06866455 C315.08267817 -0.05844426 320.01594711 -0.05386958 324.94921875 -0.04882812 C334.63282566 -0.03809588 344.31641035 -0.02102289 354 0 C353.37152367 3.45625523 352.80350521 5.71414161 350.62890625 8.49609375 C350.14220459 9.12974854 349.65550293 9.76340332 349.15405273 10.41625977 C348.36623413 11.41677368 348.36623413 11.41677368 347.5625 12.4375 C346.45957641 13.87134991 345.3580358 15.30626456 344.2578125 16.7421875 C343.43071777 17.81678223 343.43071777 17.81678223 342.58691406 18.91308594 C340.30334571 21.91615398 338.11396417 24.98134766 335.9375 28.0625 C332.50291608 32.90868896 329.02211919 37.71703478 325.5 42.5 C321.96167982 47.30673953 318.45879851 52.13572146 315 57 C311.54119911 61.86428188 308.03813169 66.69311931 304.5 71.5 C301.00712897 76.24676906 297.54334122 81.0117617 294.125 85.8125 C285.78135688 97.52722798 277.35955002 109.18272116 268.8125 120.75 C263.99714943 127.26724298 259.24135556 133.82113274 254.546875 140.42578125 C249.96434456 146.86928383 245.31546215 153.2653637 240.68212891 159.67236328 C239.00909103 161.98742034 237.33818192 164.30399814 235.66796875 166.62109375 C216.17097951 193.66298315 216.17097951 193.66298315 213.38436317 196.8447237 C211.62959303 199.57667624 211.61897064 201.28993906 211.60800171 204.52348328 C211.59136223 206.20818726 211.59136223 206.20818726 211.5743866 207.92692566 C211.5788958 209.76846977 211.5788958 209.76846977 211.58349609 211.6472168 C211.57061806 213.59152084 211.57061806 213.59152084 211.55747986 215.57510376 C211.53416326 219.12650957 211.52900794 222.67774059 211.52682066 226.22921348 C211.52116098 229.94305521 211.49789003 233.65678293 211.47622681 237.37055969 C211.4377048 244.40283091 211.41348366 251.4350695 211.39510214 258.46741945 C211.36168354 271.07408761 211.30406611 283.68065836 211.24111044 296.28720981 C211.21957098 300.71424553 211.20432898 305.14124722 211.19427085 309.56832349 C211.1889552 311.65522931 211.18148928 313.74211443 211.17311096 315.82901001 C211.16307423 318.37921443 211.15671079 320.92943677 211.15455627 323.47966003 C211.14910294 324.59433655 211.1436496 325.70901306 211.13803101 326.85746765 C211.13547491 327.83213832 211.13291882 328.80680899 211.13028526 329.81101513 C211 332 211 332 210 333 C207.91380978 333.09417773 205.82439523 333.11742878 203.73608398 333.11352539 C202.7556311 333.11374443 202.7556311 333.11374443 201.75537109 333.1139679 C199.58557872 333.11326883 197.41587121 333.10547678 195.24609375 333.09765625 C193.74536689 333.09579205 192.24463943 333.09436816 190.74391174 333.09336853 C186.78681774 333.08954352 182.82976022 333.0797134 178.87268066 333.06866455 C174.83765151 333.05845006 170.80261647 333.05387083 166.76757812 333.04882812 C158.84503531 333.03809111 150.92252219 333.0210149 143 333 C143.00590778 332.33537782 143.01181557 331.67075563 143.01790237 330.98599339 C143.15812988 314.74006272 143.23091595 298.49532729 143.23059464 282.2488184 C143.23202974 274.39165944 143.2554659 266.53576651 143.33251953 258.67895508 C143.39970068 251.82290087 143.42374503 244.96821174 143.39809489 238.11185449 C143.38598847 234.48791711 143.39404682 230.86679441 143.4539566 227.24327278 C143.71326319 210.63110907 143.23513567 198.07628858 131.39907455 185.51491928 C129.49571177 183.45395622 127.91964072 181.20576077 126.3359375 178.89453125 C125.34984505 177.53321142 124.36289565 176.17251184 123.375 174.8125 C119.56615333 169.55374631 115.76770367 164.28831536 112 159 C106.59222937 151.41325803 101.13272731 143.86409663 95.67333984 136.31445312 C92.94736861 132.54406981 90.22378466 128.77196306 87.5 125 C86.41667856 123.49999141 85.33334521 121.99999142 84.25 120.5 C51.75 75.5 51.75 75.5 50.1237793 73.24829102 C49.04453876 71.75397045 47.96527458 70.25966696 46.88598633 68.76538086 C44.11483531 64.9286279 41.34414313 61.09154488 38.57421875 57.25390625 C37.44532826 55.69009279 36.3164222 54.12629057 35.1875 52.5625 C34.63908447 51.80267822 34.09066895 51.04285645 33.52563477 50.26000977 C30.67400552 46.31096557 27.81237986 42.36967038 24.9375 38.4375 C21.06329117 33.12476637 17.2888037 27.74303443 13.51831055 22.35644531 C11.14752939 18.983558 8.7550727 15.64265838 6.23046875 12.3828125 C5.80950928 11.83810303 5.3885498 11.29339355 4.95483398 10.73217773 C3.82772071 9.28714315 2.68775454 7.85215952 1.546875 6.41796875 C0 4 0 4 0 0 Z " fill="#000000" transform="translate(395,263)"/>
<path d="M0 0 C1.15089489 -0.00260775 2.30178978 -0.00521549 3.48756027 -0.00790226 C5.40818724 -0.00455618 5.40818724 -0.00455618 7.36761475 -0.0011425 C8.72894965 -0.00229337 10.09028425 -0.00388066 11.45161819 -0.00586975 C15.20995594 -0.01006779 18.9682685 -0.00797025 22.72660637 -0.00488353 C26.7730006 -0.00263157 30.81939034 -0.00610802 34.86578369 -0.00886345 C42.79957692 -0.01332234 50.73336071 -0.01234415 58.66715431 -0.00945081 C65.11210839 -0.00719724 71.55705981 -0.00688405 78.00201416 -0.00797462 C78.91745916 -0.00812786 79.83290415 -0.00828109 80.77608991 -0.00843897 C82.63549264 -0.00875868 84.49489538 -0.00908289 86.35429811 -0.00941156 C103.81148017 -0.0122667 121.26865699 -0.0089788 138.72583818 -0.00361119 C153.72199289 0.00085688 168.71813986 0.00008095 183.71429443 -0.00452995 C201.10677086 -0.00987512 218.49924269 -0.011992 235.89171982 -0.00891769 C237.74448395 -0.00859912 239.59724808 -0.00828475 241.45001221 -0.00797462 C242.3617329 -0.00782035 243.27345358 -0.00766607 244.21280217 -0.00750712 C250.65393385 -0.00664179 257.09506262 -0.00810518 263.53619385 -0.01045418 C271.38015166 -0.01325174 279.22409945 -0.01251485 287.06805611 -0.00717343 C291.07416968 -0.00453582 295.08026653 -0.00353236 299.08638 -0.00682259 C302.7477743 -0.00978433 306.40913623 -0.0081948 310.07052755 -0.00284503 C312.03517376 -0.00118413 313.99982217 -0.0044795 315.96446609 -0.00790226 C317.69080843 -0.00399064 317.69080843 -0.00399064 319.45202637 0 C320.45356625 0.00016235 321.45510612 0.0003247 322.4869957 0.00049198 C324.72601318 0.12584114 324.72601318 0.12584114 325.72601318 1.12584114 C325.72601318 23.56584114 325.72601318 46.00584114 325.72601318 69.12584114 C216.16601318 69.12584114 106.60601318 69.12584114 -6.27398682 69.12584114 C-6.27398682 0.00101703 -6.27398682 0.00101703 0 0 Z " fill="#000000" transform="translate(1243.2739868164063,262.87415885925293)"/>
<path d="M0 0 C1.57469291 -0.04642354 3.1489162 -0.11437021 4.72167969 -0.20507812 C17.71585794 -0.9412455 17.71585794 -0.9412455 23.10473633 2.97290039 C25.64622304 5.75238665 27.82043203 8.57536236 29.94750977 11.6796875 C30.86973857 12.80348436 31.80166545 13.91957005 32.75219727 15.01953125 C33.77700195 16.30537109 33.77700195 16.30537109 34.82250977 17.6171875 C36.86812939 20.17987334 38.85157146 22.58657091 41.20532227 24.87109375 C42.94750977 26.6796875 42.94750977 26.6796875 42.94750977 28.6796875 C43.60750977 28.6796875 44.26750977 28.6796875 44.94750977 28.6796875 C46.36189382 30.25255434 47.70355378 31.89108746 49.01000977 33.5546875 C52.8344374 38.33984092 56.80792786 42.92123212 60.93579102 47.4453125 C62.64184759 49.34019476 64.27839156 51.26336156 65.88500977 53.2421875 C67.71225241 55.72619186 67.71225241 55.72619186 69.94750977 56.6796875 C70.1730957 56.13441406 70.39868164 55.58914062 70.63110352 55.02734375 C72.33894639 51.98160615 74.61811667 49.6265542 77.01000977 47.1171875 C82.87979782 40.84312265 88.62582694 34.40669767 93.57250977 27.3671875 C94.02625977 26.8103125 94.48000977 26.2534375 94.94750977 25.6796875 C95.60750977 25.6796875 96.26750977 25.6796875 96.94750977 25.6796875 C97.18211914 25.12539063 97.41672852 24.57109375 97.65844727 24 C99.27205268 21.09551025 101.29474771 18.97348745 103.57250977 16.5546875 C108.38021976 11.44365195 112.50931018 6.22743699 116.94750977 0.6796875 C128.49750977 0.6796875 140.04750977 0.6796875 151.94750977 0.6796875 C151.94750977 52.1596875 151.94750977 103.6396875 151.94750977 156.6796875 C138.74750977 156.6796875 125.54750977 156.6796875 111.94750977 156.6796875 C111.61750977 126.3196875 111.28750977 95.9596875 110.94750977 64.6796875 C104.74674992 71.44415278 98.83970691 77.93635367 93.12719727 85.03125 C90.27006185 88.50282314 87.25287892 91.80848817 84.20141602 95.109375 C81.86711688 97.70223866 81.86711688 97.70223866 79.66235352 100.75 C74.15186383 108.1414287 74.15186383 108.1414287 70.84985352 109.6171875 C67.69643199 109.90883342 65.79405894 109.27132074 63.20922852 107.46484375 C61.27913546 105.65011258 59.62496415 103.73070775 57.94750977 101.6796875 C57.29395508 100.89207031 56.64040039 100.10445313 55.96704102 99.29296875 C54.48027505 97.48122661 53.00303715 95.66163961 51.53344727 93.8359375 C48.09991399 89.60422274 44.499193 85.51630871 40.90405273 81.421875 C37.60689388 77.65013296 34.40269688 73.81271627 31.23461914 69.93164062 C30.43004272 68.94651489 29.62546631 67.96138916 28.79650879 66.94641113 C27.88125427 65.82438293 27.88125427 65.82438293 26.94750977 64.6796875 C26.9372023 65.81752182 26.92689484 66.95535614 26.91627502 68.12767029 C26.8187184 78.82605161 26.71600163 89.52437245 26.60817051 100.2226553 C26.55289477 105.72336718 26.49946748 111.22408432 26.45019531 116.72485352 C26.40262018 122.02870033 26.35028013 127.33248026 26.29456902 132.63624763 C26.27411431 134.66452441 26.25540651 136.69281955 26.23843575 138.72112846 C26.21446044 141.55170234 26.18439689 144.38214855 26.15283203 147.21264648 C26.14707657 148.05996841 26.14132111 148.90729034 26.13539124 149.7802887 C26.06156193 155.56563534 26.06156193 155.56563534 24.94750977 156.6796875 C21.99045656 156.76837049 19.0568592 156.79489046 16.09985352 156.77734375 C14.77021324 156.77522133 14.77021324 156.77522133 13.41371155 156.77305603 C10.57077722 156.76743965 7.72792045 156.75488441 4.88500977 156.7421875 C2.96248486 156.73717461 1.03995872 156.73261134 -0.88256836 156.72851562 C-5.60590573 156.71746491 -10.32918481 156.70018933 -15.05249023 156.6796875 C-15.07581758 136.48747041 -15.0934686 116.29525605 -15.10430241 96.1030283 C-15.10946571 86.72810479 -15.11650907 77.35318963 -15.12792969 67.97827148 C-15.13787546 59.81014228 -15.14434341 51.64201913 -15.14657873 43.47388405 C-15.14788602 39.14617695 -15.15097301 34.81848716 -15.15822029 30.4907856 C-15.16497883 26.42219022 -15.16710754 22.35361938 -15.16559792 18.28501892 C-15.16587432 16.78737187 -15.16788043 15.28972405 -15.17169571 13.79208183 C-15.1766303 11.75617432 -15.17488841 9.7202538 -15.17274475 7.68434143 C-15.17366654 6.54223992 -15.17458834 5.40013842 -15.17553806 4.22342777 C-14.88416611 -1.80003943 -4.78917509 0.11065242 0 0 Z " fill="#000000" transform="translate(206.052490234375,10.3203125)"/>
<path d="M0 0 C0.72225769 -0.0049649 1.44451538 -0.00992981 2.18865967 -0.01504517 C4.5965672 -0.0297319 7.00440838 -0.03648737 9.41235352 -0.04199219 C11.09416199 -0.04774812 12.77597046 -0.05350579 14.45777893 -0.05926514 C18.00131536 -0.06980016 21.544829 -0.0756232 25.08837891 -0.07910156 C29.57857151 -0.08452426 34.06845121 -0.10840495 38.55854702 -0.13707352 C42.04467051 -0.15594178 45.53072321 -0.16091862 49.01689339 -0.16243744 C50.66831189 -0.16542173 52.31973047 -0.17330279 53.97109795 -0.18662262 C79.60286277 -0.37822327 105.44294908 4.33597672 124.63354492 22.61206055 C140.08686256 37.84434488 146.88712955 56.7693223 147.41625977 78.34863281 C147.0368076 99.99972698 140.8903233 117.77756828 125.91625977 133.84863281 C117.13340432 142.26992989 106.54788989 147.37053598 95.10375977 151.16113281 C93.83725586 151.60585938 93.83725586 151.60585938 92.54516602 152.05957031 C72.5977902 158.34563882 50.00965097 156.41135097 29.35400391 156.29846191 C25.14300573 156.27769681 20.9319823 156.26880386 16.72094727 156.25878906 C8.51515035 156.23758577 0.30947398 156.203627 -7.89624023 156.16113281 C-7.91956758 135.96891573 -7.9372186 115.77670136 -7.94805241 95.58447361 C-7.95321571 86.2095501 -7.96025907 76.83463494 -7.97167969 67.4597168 C-7.98162546 59.2915876 -7.98809341 51.12346445 -7.99032873 42.95532936 C-7.99163602 38.62762226 -7.99472301 34.29993248 -8.00197029 29.97223091 C-8.00872883 25.90363553 -8.01085754 21.83506469 -8.00934792 17.76646423 C-8.00962432 16.26881718 -8.01163043 14.77116936 -8.01544571 13.27352715 C-8.0203803 11.23761963 -8.01863841 9.20169911 -8.01649475 7.16578674 C-8.01741654 6.02368524 -8.01833834 4.88158373 -8.01928806 3.70487309 C-7.77379902 -1.37006701 -4.36997718 0.02275322 0 0 Z M33.10375977 31.16113281 C32.77375977 62.51113281 32.44375977 93.86113281 32.10375977 126.16113281 C65.0719413 127.61363586 65.0719413 127.61363586 93.10375977 113.16113281 C103.56924946 101.71450346 105.7264231 88.17692606 105.40844727 73.21972656 C104.83606205 60.5775821 100.42004702 50.07336476 91.12329102 41.29003906 C74.20388619 27.74776095 54.48531056 31.16113281 33.10375977 31.16113281 Z " fill="#000000" transform="translate(392.896240234375,10.8388671875)"/>
<path d="M0 0 C15.18 0 30.36 0 46 0 C52.87752657 13.75505314 52.87752657 13.75505314 55.890625 20.734375 C56.23244812 21.51806458 56.57427124 22.30175415 56.92645264 23.10919189 C57.65714948 24.78464552 58.38655638 26.46066223 59.11474609 28.13720703 C61.09461785 32.69389251 63.08590693 37.24557646 65.078125 41.796875 C65.48720093 42.73156616 65.89627686 43.66625732 66.31774902 44.62927246 C70.47732587 54.11691108 74.73263573 63.56047811 79 73 C91.28935397 100.2034974 103.35210532 127.51505554 115 155 C114 156 114 156 112.24729919 156.12025452 C111.48562943 156.11803391 110.72395966 156.11581329 109.93920898 156.11352539 C109.07839218 156.11344986 108.21757538 156.11337433 107.33067322 156.11329651 C106.39526199 156.10813522 105.45985077 156.10297394 104.49609375 156.09765625 C103.54307877 156.0962413 102.59006378 156.09482635 101.60816956 156.09336853 C98.55124835 156.08775152 95.49439923 156.07519616 92.4375 156.0625 C90.37044376 156.05748719 88.30338638 156.05292391 86.23632812 156.04882812 C81.15752412 156.03777656 76.0787743 156.02050055 71 156 C70.40926107 154.51831055 69.81852214 153.03662109 69.2277832 151.55493164 C68.70457993 150.24276169 68.70457993 150.24276169 68.17080688 148.90408325 C67.4483162 147.09174628 66.72633382 145.27920665 66.00463867 143.46655273 C65.6872876 142.67192627 65.36993652 141.8772998 65.04296875 141.05859375 C64.52549072 139.76284424 64.52549072 139.76284424 63.99755859 138.44091797 C63.1166757 136.28549281 62.18928059 134.16022884 61.23828125 132.03515625 C60 129 60 129 60 126 C37.56 126 15.12 126 -8 126 C-8.99 128.97 -9.98 131.94 -11 135 C-11.66676136 136.82946718 -12.34550348 138.65467301 -13.04296875 140.47265625 C-13.36031982 141.30289307 -13.6776709 142.13312988 -14.00463867 142.98852539 C-14.39498291 144.00293701 -14.78532715 145.01734863 -15.1875 146.0625 C-16.445625 149.341875 -17.70375 152.62125 -19 156 C-32.86 156 -46.72 156 -61 156 C-60.24889765 150.74228355 -59.56782757 147.35568581 -57.671875 142.61328125 C-56.96611328 140.8334082 -56.96611328 140.8334082 -56.24609375 139.01757812 C-55.75238281 137.79490234 -55.25867187 136.57222656 -54.75 135.3125 C-54.27175781 134.10916016 -53.79351562 132.90582031 -53.30078125 131.66601562 C-50.6848201 125.10484477 -48.00070368 118.57439332 -45.2734375 112.05883789 C-42.85202422 106.2425252 -40.49246456 100.40092598 -38.125 94.5625 C-37.56424463 93.1806496 -37.00345265 91.79881405 -36.44262695 90.41699219 C-35.25160356 87.48207528 -34.06097193 84.54699982 -32.87060547 81.61181641 C-31.27515355 77.67793612 -29.67861617 73.74449726 -28.08183289 69.81115723 C-21.3480926 53.22313995 -14.6288539 36.6302826 -8 20 C-5.36 13.4 -2.72 6.8 0 0 Z M24 42 C20.95354348 47.85596642 18.43559267 53.75755418 16.125 59.9375 C15.78130371 60.84757812 15.43760742 61.75765625 15.08349609 62.6953125 C12.60434011 69.29412396 10.21309484 75.92201328 7.90283203 82.58178711 C6.94336464 85.34761639 5.9665279 88.07997361 4.8359375 90.78125 C3.82371629 93.07272647 3.82371629 93.07272647 4 96 C17.86 96 31.72 96 46 96 C45.19603555 91.17621328 44.62533484 88.81901341 42.5625 84.6875 C37.93611776 74.98665976 34.1172863 64.95108241 30.17089844 54.95947266 C28.45979805 50.63462718 26.73107716 46.31688118 25 42 C24.67 42 24.34 42 24 42 Z " fill="#000000" transform="translate(61,11)"/>
<path d="M0 0 C58.41 0 116.82 0 177 0 C177 58.41 177 116.82 177 177 C166.88902241 171.9445112 158.18962679 164.26232476 149.75 156.8125 C148.93880833 156.09857716 148.93880833 156.09857716 148.11122894 155.37023163 C133.89631232 142.6724131 125.40327047 130.46724376 124.0941925 111.07771111 C123.09514015 90.72682409 124.67341391 70.215815 127 50 C125.67530701 50.15988403 125.67530701 50.15988403 124.32385254 50.32299805 C113.06963218 51.61753055 101.81705891 52.48704522 90.5 53 C89.60278606 53.0407943 88.70557213 53.08158859 87.78116989 53.12361908 C65.67613879 54.00904164 47.34201284 53.06535616 30.30950546 37.80913544 C26.33851337 34.11112098 22.65871476 30.18530989 19.0625 26.125 C18.30297531 25.27014008 18.30297531 25.27014008 17.52810669 24.39801025 C0 4.49667596 0 4.49667596 0 0 Z " fill="#000000" transform="translate(566,0)"/>
<path d="M0 0 C0 22.77 0 45.54 0 69 C22.77 69 45.54 69 69 69 C63.83546192 79.32907615 55.55188545 88.18271804 47.875 96.75 C47.38118206 97.3026717 46.88736412 97.8553434 46.378582 98.42476273 C33.19013499 112.99483084 20.92729957 122.00755637 0.85546875 123.10546875 C-16.75467974 123.85861799 -34.54929403 122.2833348 -52 120 C-53.50342673 109.21330109 -54.50002139 98.43702435 -55.0625 87.5625 C-55.10400303 86.76116009 -55.14550606 85.95982018 -55.18826675 85.13419724 C-56.15241142 63.95680749 -54.16796816 47.71704788 -39.59245872 31.60294914 C-35.80332433 27.55754217 -31.80185771 23.77377879 -27.6875 20.0625 C-27.10766987 19.53734425 -26.52783974 19.01218849 -25.930439 18.47111893 C-5.39021698 0 -5.39021698 0 0 0 Z " fill="#000000" transform="translate(616,58)"/>
</svg>
